<svg width="1549" height="296" viewBox="0 0 1549 296" fill="none" xmlns="http://www.w3.org/2000/svg">
<path d="M3.73608e-05 290.34V10.3978H46.3905V290.34H3.73608e-05ZM84.4732 290.34V90.3813H126.465L128.464 118.775C134.863 108.111 143.128 99.9794 153.259 94.3805C163.657 88.5151 175.521 85.5823 188.852 85.5823C204.848 85.5823 218.446 88.7817 229.643 95.1803C241.108 101.579 249.772 111.577 255.638 125.174C261.77 138.505 264.836 155.968 264.836 177.563V290.34H220.045V187.961C220.045 171.965 218.179 159.7 214.446 151.169C210.98 142.371 205.915 136.239 199.25 132.773C192.851 129.307 185.252 127.574 176.454 127.574C161.524 127.307 149.926 132.239 141.661 142.371C133.396 152.502 129.264 167.032 129.264 185.962V290.34H84.4732ZM369.796 295.139C348.733 295.139 332.603 289.94 321.406 279.542C310.475 268.878 305.009 253.681 305.009 233.952V128.773H271.816V90.3813H305.009V27.9942H349.4V90.3813H403.389V128.773H349.4V225.553C349.4 234.885 351.533 241.95 355.798 246.749C360.331 251.548 366.863 253.948 375.394 253.948C378.061 253.948 380.993 253.414 384.193 252.348C387.392 251.281 390.991 249.282 394.99 246.349L411.387 280.342C404.455 285.141 397.523 288.74 390.591 291.14C383.659 293.806 376.728 295.139 369.796 295.139ZM513.663 295.139C494.2 295.139 476.87 290.74 461.674 281.942C446.743 272.877 434.879 260.48 426.081 244.749C417.549 229.019 413.284 210.89 413.284 190.361C413.284 169.832 417.683 151.702 426.481 135.972C435.279 120.242 447.276 107.978 462.473 99.1795C477.937 90.1147 495.533 85.5823 515.262 85.5823C533.125 85.5823 549.255 90.248 563.652 99.5794C578.05 108.644 589.381 121.842 597.645 139.171C606.177 156.501 610.443 177.163 610.443 201.158H459.674C461.007 217.955 467.139 231.152 478.07 240.75C489.268 250.348 502.465 255.147 517.662 255.147C529.926 255.147 540.057 252.481 548.056 247.149C556.054 241.55 562.319 234.352 566.852 225.553L606.444 242.35C600.845 253.014 593.646 262.346 584.848 270.344C576.317 278.343 566.052 284.475 554.054 288.74C542.324 293.006 528.86 295.139 513.663 295.139ZM462.473 166.766H562.053C561.253 157.168 558.454 149.303 553.655 143.17C548.856 136.772 542.99 131.973 536.058 128.773C529.126 125.574 521.794 123.974 514.063 123.974C506.598 123.974 498.999 125.574 491.267 128.773C483.802 131.706 477.404 136.372 472.071 142.771C466.739 149.169 463.54 157.168 462.473 166.766ZM624.752 290.34V90.3813H669.543V126.774C677.541 114.243 687.939 104.912 700.737 98.7796C713.534 92.6475 726.731 89.5815 740.328 89.5815V132.373C728.064 132.373 716.467 134.106 705.536 137.572C694.871 140.771 686.206 146.103 679.541 153.568C672.876 161.033 669.543 170.898 669.543 183.162V290.34H624.752ZM750.039 290.34V90.3813H792.03L794.03 117.176C800.162 106.778 808.027 98.9129 817.625 93.5807C827.223 88.2484 838.154 85.5823 850.418 85.5823C866.415 85.5823 880.012 89.1816 891.21 96.3801C902.408 103.579 910.539 114.51 915.605 129.173C921.47 115.043 929.735 104.245 940.4 96.78C951.064 89.3149 963.595 85.5823 977.992 85.5823C1001.19 85.5823 1019.05 93.0475 1031.58 107.978C1044.11 122.641 1050.24 145.303 1049.98 175.964V290.34H1005.59V187.961C1005.59 171.965 1003.85 159.7 1000.39 151.169C996.921 142.371 992.256 136.239 986.39 132.773C980.525 129.307 973.726 127.574 965.994 127.574C952.131 127.307 941.333 132.239 933.601 142.371C926.136 152.502 922.403 167.032 922.403 185.962V290.34H877.613V187.961C877.613 171.965 875.88 159.7 872.414 151.169C869.214 142.371 864.682 136.239 858.817 132.773C852.951 129.307 846.153 127.574 838.421 127.574C824.557 127.307 813.759 132.239 806.027 142.371C798.562 152.502 794.83 167.032 794.83 185.962V290.34H750.039ZM1078.47 290.34V90.3813H1122.87V290.34H1078.47ZM1100.87 52.3892C1093.67 52.3892 1087.41 49.8564 1082.07 44.7907C1077.01 39.4585 1074.48 33.1931 1074.48 25.9946C1074.48 18.7961 1077.01 12.664 1082.07 7.59842C1087.41 2.5328 1093.67 -7.31568e-06 1100.87 -7.31568e-06C1108.07 -7.31568e-06 1114.2 2.5328 1119.27 7.59842C1124.6 12.664 1127.26 18.7961 1127.26 25.9946C1127.26 33.1931 1124.6 39.4585 1119.27 44.7907C1114.2 49.8564 1108.07 52.3892 1100.87 52.3892ZM1155.66 290.34V90.3813H1197.65L1199.65 118.775C1206.05 108.111 1214.31 99.9794 1224.44 94.3805C1234.84 88.5151 1246.71 85.5823 1260.04 85.5823C1276.03 85.5823 1289.63 88.7817 1300.83 95.1803C1312.29 101.579 1320.96 111.577 1326.82 125.174C1332.96 138.505 1336.02 155.968 1336.02 177.563V290.34H1291.23V187.961C1291.23 171.965 1289.36 159.7 1285.63 151.169C1282.17 142.371 1277.1 136.239 1270.43 132.773C1264.04 129.307 1256.44 127.574 1247.64 127.574C1232.71 127.307 1221.11 132.239 1212.85 142.371C1204.58 152.502 1200.45 167.032 1200.45 185.962V290.34H1155.66ZM1440.58 295.139C1422.45 295.139 1406.59 290.873 1392.99 282.342C1379.66 273.544 1369.13 261.279 1361.4 245.549C1353.93 229.819 1350.2 211.423 1350.2 190.361C1350.2 169.032 1353.93 150.636 1361.4 135.172C1369.13 119.442 1379.66 107.311 1392.99 98.7796C1406.59 89.9814 1422.45 85.5823 1440.58 85.5823C1454.44 85.5823 1466.71 88.6484 1477.37 94.7804C1488.04 100.646 1496.84 109.044 1503.77 119.975V10.3978H1548.16V290.34H1505.77L1504.17 259.946C1497.5 271.144 1488.7 279.809 1477.77 285.941C1467.11 292.073 1454.71 295.139 1440.58 295.139ZM1451.78 254.348C1461.64 254.348 1470.44 251.815 1478.17 246.749C1485.9 241.417 1491.9 234.218 1496.17 225.154C1500.7 215.822 1503.23 205.158 1503.77 193.16V187.561C1503.23 175.564 1500.7 165.033 1496.17 155.968C1491.9 146.636 1485.9 139.438 1478.17 134.372C1470.44 129.307 1461.51 126.774 1451.38 126.774C1440.71 126.774 1431.12 129.44 1422.58 134.772C1414.32 140.104 1407.79 147.57 1402.99 157.168C1398.46 166.766 1396.19 177.83 1396.19 190.361C1396.19 202.891 1398.59 213.956 1403.39 223.554C1408.19 233.152 1414.72 240.75 1422.98 246.349C1431.52 251.681 1441.11 254.348 1451.78 254.348Z" fill="white"/>
</svg>
